<svg width="264" height="126" viewBox="0 0 264 126" fill="none" xmlns="http://www.w3.org/2000/svg">
<rect x="-0.30485" y="0.30485" width="4.8776" height="110.965" transform="matrix(-1 0 0 1 262.171 0.200928)" stroke="black" stroke-width="0.6097"/>
<rect x="-0.30485" y="0.30485" width="173.155" height="115.843" transform="matrix(-1 0 0 1 254.245 3.85889)" stroke="black" stroke-width="0.6097"/>
<path d="M81.3949 57.2077H0.304787V102.504L17.8075 120.007H81.3949V57.2077Z" stroke="black" stroke-width="0.6097"/>
<path d="M71.3352 56.9028L71.3352 120.312" stroke="black" stroke-width="0.6097"/>
<path d="M54.8735 56.9028L54.8735 120.312" stroke="black" stroke-width="0.6097"/>
<path d="M67.0671 56.9028L67.0671 120.312" stroke="black" stroke-width="0.6097"/>
<path d="M50.6052 56.9028L50.6052 120.312" stroke="black" stroke-width="0.6097"/>
<path d="M36.5823 56.9028L36.5823 120.312" stroke="black" stroke-width="0.6097"/>
<path d="M32.3146 56.9028L32.3146 120.312" stroke="black" stroke-width="0.6097"/>
<path d="M18.2913 56.9028L18.2913 120.312" stroke="black" stroke-width="0.6097"/>
<path d="M14.0233 57.5128L14.0233 116.044" stroke="black" stroke-width="0.6097" stroke-linecap="round"/>
<path d="M81.3949 57.2076V40.2725L70.6693 57.2076H81.3949Z" stroke="black" stroke-width="0.6097"/>
<rect x="0.30485" y="0.30485" width="5.48731" height="245.709" transform="matrix(4.37114e-08 1 1 -4.37114e-08 17.6816 119.702)" stroke="black" stroke-width="0.6097"/>
<rect x="-0.30485" y="0.30485" width="3.0485" height="119.501" transform="matrix(-1 0 0 1 257.294 0.200928)" stroke="black" stroke-width="0.6097"/>
</svg>
