<svg width="355" height="174" viewBox="0 0 355 174" fill="none" xmlns="http://www.w3.org/2000/svg">
<rect x="-0.5" y="0.5" width="6.52425" height="151.993" transform="matrix(-1 0 0 1 352.328 0.88916)" stroke="black"/>
<rect x="-0.5" y="0.5" width="237.268" height="158.681" transform="matrix(-1 0 0 1 341.46 5.90527)" stroke="black"/>
<path d="M104.191 49.3788L341.623 49.3788" stroke="black"/>
<path d="M104.191 123.785L341.623 123.785" stroke="black"/>
<path d="M104.527 79.1398H0.499634V161.593L17.2959 165.087H104.527V79.1398Z" stroke="black"/>
<path d="M104.527 78.9757V56.1189L90.0513 78.9757H104.527Z" stroke="black"/>
<rect x="0.5" y="0.5" width="7.36029" height="336.755" transform="matrix(4.37114e-08 1 1 -4.37114e-08 17.2451 164.751)" stroke="black"/>
<rect x="-0.5" y="0.5" width="4.01617" height="163.697" transform="matrix(-1 0 0 1 345.64 0.88916)" stroke="black"/>
<g clip-path="url(#clip0_1_5082)">
<rect x="6" y="82" width="95" height="80" fill="url(#paint0_linear_1_5082)"/>
</g>
<path d="M40.2862 127V125.449L43.9105 122.093C44.2188 121.795 44.4773 121.526 44.6861 121.288C44.8982 121.049 45.0589 120.815 45.1683 120.587C45.2777 120.355 45.3324 120.104 45.3324 119.836C45.3324 119.538 45.2644 119.281 45.1286 119.065C44.9927 118.847 44.8071 118.679 44.5717 118.563C44.3364 118.444 44.0696 118.384 43.7713 118.384C43.4598 118.384 43.188 118.447 42.956 118.573C42.724 118.699 42.545 118.88 42.419 119.115C42.2931 119.35 42.2301 119.63 42.2301 119.955H40.1868C40.1868 119.289 40.3376 118.711 40.6392 118.22C40.9408 117.73 41.3634 117.35 41.907 117.082C42.4505 116.813 43.0769 116.679 43.7862 116.679C44.5154 116.679 45.1501 116.808 45.6903 117.067C46.2339 117.322 46.6565 117.677 46.9581 118.131C47.2597 118.585 47.4105 119.105 47.4105 119.692C47.4105 120.076 47.3343 120.456 47.1818 120.83C47.0327 121.205 46.7659 121.621 46.3814 122.078C45.9969 122.532 45.455 123.077 44.7557 123.714L43.2692 125.17V125.24H47.5447V127H40.2862ZM52.8681 127.139C52.1257 127.139 51.4644 127.012 50.8844 126.756C50.3077 126.498 49.852 126.143 49.5172 125.692C49.1858 125.238 49.0151 124.715 49.0051 124.121H51.1728C51.186 124.37 51.2672 124.589 51.4164 124.778C51.5688 124.963 51.771 125.107 52.0229 125.21C52.2748 125.313 52.5582 125.364 52.873 125.364C53.2012 125.364 53.4912 125.306 53.7431 125.19C53.995 125.074 54.1922 124.914 54.3347 124.708C54.4772 124.503 54.5485 124.266 54.5485 123.997C54.5485 123.725 54.4722 123.485 54.3198 123.276C54.1706 123.064 53.9552 122.898 53.6735 122.779C53.3951 122.66 53.0636 122.6 52.6792 122.6H51.7296V121.019H52.6792C53.004 121.019 53.2907 120.963 53.5392 120.85C53.7911 120.737 53.9867 120.582 54.1259 120.383C54.2651 120.181 54.3347 119.945 54.3347 119.677C54.3347 119.422 54.2734 119.198 54.1507 119.006C54.0314 118.81 53.8624 118.658 53.6436 118.548C53.4282 118.439 53.1763 118.384 52.888 118.384C52.5963 118.384 52.3295 118.437 52.0875 118.543C51.8456 118.646 51.6517 118.794 51.5059 118.986C51.36 119.178 51.2821 119.403 51.2722 119.662H49.209C49.2189 119.075 49.3863 118.558 49.7111 118.111C50.0359 117.663 50.4734 117.314 51.0236 117.062C51.5771 116.807 52.2019 116.679 52.8979 116.679C53.6006 116.679 54.2154 116.807 54.7424 117.062C55.2694 117.317 55.6787 117.662 55.9703 118.096C56.2653 118.527 56.4112 119.011 56.4078 119.548C56.4112 120.118 56.2338 120.593 55.8759 120.974C55.5212 121.356 55.0589 121.598 54.4888 121.7V121.78C55.2379 121.876 55.8079 122.136 56.199 122.56C56.5935 122.981 56.789 123.508 56.7857 124.141C56.789 124.721 56.6216 125.237 56.2836 125.688C55.9488 126.138 55.4864 126.493 54.8965 126.751C54.3065 127.01 53.6304 127.139 52.8681 127.139ZM63.9062 125.091V124.554C63.9062 124.146 63.9924 123.772 64.1648 123.43C64.3404 123.086 64.594 122.811 64.9254 122.605C65.2602 122.396 65.6679 122.292 66.1484 122.292C66.6357 122.292 67.045 122.395 67.3764 122.6C67.7112 122.806 67.9631 123.081 68.1321 123.425C68.3045 123.767 68.3906 124.143 68.3906 124.554V125.091C68.3906 125.499 68.3045 125.875 68.1321 126.219C67.9598 126.561 67.7062 126.834 67.3714 127.04C67.0367 127.249 66.629 127.353 66.1484 127.353C65.6612 127.353 65.2519 127.249 64.9205 127.04C64.589 126.834 64.3371 126.561 64.1648 126.219C63.9924 125.875 63.9062 125.499 63.9062 125.091ZM65.353 124.554V125.091C65.353 125.326 65.4093 125.548 65.522 125.757C65.638 125.966 65.8468 126.07 66.1484 126.07C66.45 126.07 66.6555 125.968 66.7649 125.762C66.8776 125.557 66.9339 125.333 66.9339 125.091V124.554C66.9339 124.312 66.8809 124.087 66.7749 123.878C66.6688 123.669 66.46 123.565 66.1484 123.565C65.8501 123.565 65.643 123.669 65.527 123.878C65.411 124.087 65.353 124.312 65.353 124.554ZM58.6811 119.264V118.727C58.6811 118.316 58.7689 117.94 58.9446 117.599C59.1203 117.254 59.3738 116.979 59.7053 116.773C60.04 116.568 60.4444 116.465 60.9183 116.465C61.4089 116.465 61.8198 116.568 62.1513 116.773C62.4827 116.979 62.7346 117.254 62.907 117.599C63.0793 117.94 63.1655 118.316 63.1655 118.727V119.264C63.1655 119.675 63.0777 120.051 62.902 120.393C62.7296 120.734 62.4761 121.008 62.1413 121.213C61.8099 121.415 61.4022 121.516 60.9183 121.516C60.4344 121.516 60.0251 121.414 59.6903 121.208C59.3589 120.999 59.107 120.726 58.9347 120.388C58.7656 120.046 58.6811 119.672 58.6811 119.264ZM60.1378 118.727V119.264C60.1378 119.506 60.1941 119.73 60.3068 119.935C60.4228 120.141 60.6267 120.244 60.9183 120.244C61.2232 120.244 61.4304 120.141 61.5398 119.935C61.6525 119.73 61.7088 119.506 61.7088 119.264V118.727C61.7088 118.485 61.6558 118.26 61.5497 118.051C61.4437 117.842 61.2332 117.738 60.9183 117.738C60.6233 117.738 60.4195 117.844 60.3068 118.056C60.1941 118.268 60.1378 118.492 60.1378 118.727ZM59.3374 127L66.3374 116.818H67.6399L60.6399 127H59.3374Z" fill="#FAFAFA"/>
<defs>
<linearGradient id="paint0_linear_1_5082" x1="53.5" y1="82" x2="53.5" y2="162" gradientUnits="userSpaceOnUse">
<stop stop-color="#CBD5E1"/>
<stop offset="0.75" stop-color="#CBD5E1"/>
<stop offset="0.75" stop-color="#0891B2"/>
<stop offset="1" stop-color="#0E7490"/>
</linearGradient>
<clipPath id="clip0_1_5082">
<rect x="6" y="82" width="95" height="80" rx="5.57079" fill="white"/>
</clipPath>
</defs>
</svg>
