<svg width="47" height="46" viewBox="0 0 47 46" fill="none" xmlns="http://www.w3.org/2000/svg">
<circle cx="23.5" cy="23" r="23" fill="url(#paint0_linear_1_5895)"/>
<circle cx="23.8368" cy="23.3368" r="16.3368" fill="url(#paint1_linear_1_5895)"/>
<circle cx="23.8368" cy="23.3368" r="15.8368" stroke="#991B1B" stroke-opacity="0.3"/>
<path d="M12.0767 25H10.8995V21.3636H12.114C12.4703 21.3636 12.7763 21.4364 13.032 21.582C13.2876 21.7264 13.4835 21.9342 13.6197 22.2053C13.757 22.4751 13.8256 22.7989 13.8256 23.1765C13.8256 23.5553 13.7564 23.8808 13.6179 24.1531C13.4806 24.4253 13.2817 24.6348 13.0213 24.7816C12.7609 24.9272 12.446 25 12.0767 25ZM11.4482 24.5206H12.0465C12.3235 24.5206 12.5537 24.4685 12.7372 24.3643C12.9207 24.259 13.058 24.1069 13.1491 23.908C13.2403 23.708 13.2859 23.4641 13.2859 23.1765C13.2859 22.8912 13.2403 22.6491 13.1491 22.4503C13.0592 22.2514 12.9248 22.1005 12.7461 21.9975C12.5674 21.8945 12.3454 21.843 12.0803 21.843H11.4482V24.5206ZM14.2653 25V22.2727H14.7962V25H14.2653ZM14.5334 21.8519C14.4411 21.8519 14.3618 21.8211 14.2955 21.7596C14.2304 21.6969 14.1978 21.6223 14.1978 21.5359C14.1978 21.4483 14.2304 21.3737 14.2955 21.3121C14.3618 21.2494 14.4411 21.218 14.5334 21.218C14.6257 21.218 14.7044 21.2494 14.7695 21.3121C14.8358 21.3737 14.869 21.4483 14.869 21.5359C14.869 21.6223 14.8358 21.6969 14.7695 21.7596C14.7044 21.8211 14.6257 21.8519 14.5334 21.8519ZM17.3541 22.9386L16.8729 23.0238C16.8528 22.9622 16.8208 22.9036 16.777 22.848C16.7344 22.7924 16.6764 22.7468 16.603 22.7113C16.5296 22.6758 16.4379 22.658 16.3278 22.658C16.1775 22.658 16.052 22.6918 15.9514 22.7592C15.8508 22.8255 15.8005 22.9113 15.8005 23.0167C15.8005 23.1078 15.8342 23.1812 15.9017 23.2369C15.9691 23.2925 16.078 23.3381 16.2284 23.3736L16.6616 23.473C16.9126 23.531 17.0996 23.6204 17.2227 23.7411C17.3458 23.8619 17.4074 24.0187 17.4074 24.2116C17.4074 24.375 17.36 24.5206 17.2653 24.6484C17.1718 24.7751 17.041 24.8745 16.8729 24.9467C16.706 25.0189 16.5125 25.055 16.2923 25.055C15.9869 25.055 15.7377 24.9899 15.5448 24.8597C15.3518 24.7283 15.2335 24.5419 15.1897 24.3004L15.7028 24.2223C15.7348 24.3561 15.8005 24.4573 15.8999 24.5259C15.9993 24.5934 16.1289 24.6271 16.2887 24.6271C16.4627 24.6271 16.6018 24.591 16.706 24.5188C16.8102 24.4454 16.8623 24.3561 16.8623 24.2507C16.8623 24.1655 16.8303 24.0939 16.7664 24.0359C16.7036 23.9779 16.6072 23.9341 16.477 23.9045L16.0153 23.8033C15.7608 23.7453 15.5726 23.6529 15.4507 23.5263C15.3299 23.3996 15.2696 23.2392 15.2696 23.0451C15.2696 22.8841 15.3145 22.7433 15.4045 22.6225C15.4945 22.5018 15.6188 22.4077 15.7774 22.3402C15.936 22.2715 16.1177 22.2372 16.3225 22.2372C16.6172 22.2372 16.8492 22.3011 17.0185 22.429C17.1878 22.5556 17.2996 22.7255 17.3541 22.9386ZM18.9665 25.055C18.6978 25.055 18.4664 24.9976 18.2722 24.8828C18.0793 24.7668 17.9302 24.604 17.8248 24.3945C17.7206 24.1838 17.6686 23.937 17.6686 23.6541C17.6686 23.3748 17.7206 23.1286 17.8248 22.9155C17.9302 22.7024 18.0769 22.5361 18.2651 22.4165C18.4545 22.297 18.6759 22.2372 18.9292 22.2372C19.0831 22.2372 19.2322 22.2627 19.3767 22.3136C19.5211 22.3645 19.6507 22.4444 19.7655 22.5533C19.8803 22.6622 19.9709 22.8036 20.0372 22.9776C20.1035 23.1504 20.1366 23.3606 20.1366 23.608V23.7962H17.9686V23.3984H19.6164C19.6164 23.2588 19.5879 23.1351 19.5311 23.0273C19.4743 22.9184 19.3944 22.8326 19.2914 22.7699C19.1896 22.7071 19.0701 22.6758 18.9328 22.6758C18.7836 22.6758 18.6534 22.7125 18.5421 22.7859C18.432 22.8581 18.3468 22.9528 18.2865 23.07C18.2273 23.186 18.1977 23.312 18.1977 23.4482V23.7589C18.1977 23.9412 18.2296 24.0962 18.2936 24.2241C18.3587 24.3519 18.4492 24.4496 18.5652 24.517C18.6812 24.5833 18.8168 24.6165 18.9718 24.6165C19.0724 24.6165 19.1642 24.6023 19.247 24.5739C19.3299 24.5443 19.4015 24.5005 19.4619 24.4425C19.5222 24.3845 19.5684 24.3129 19.6004 24.2276L20.1029 24.3182C20.0626 24.4661 19.9904 24.5958 19.8862 24.707C19.7833 24.8171 19.6536 24.9029 19.4974 24.9645C19.3423 25.0249 19.1654 25.055 18.9665 25.055ZM21.0565 23.3807V25H20.5256V22.2727H21.0352V22.7166H21.069C21.1317 22.5722 21.2299 22.4562 21.3637 22.3686C21.4987 22.281 21.6685 22.2372 21.8733 22.2372C22.0591 22.2372 22.2219 22.2763 22.3616 22.3544C22.5013 22.4313 22.6096 22.5462 22.6865 22.6989C22.7634 22.8516 22.8019 23.0404 22.8019 23.2653V25H22.271V23.3292C22.271 23.1315 22.2195 22.977 22.1165 22.8658C22.0136 22.7533 21.8721 22.6971 21.6922 22.6971C21.5691 22.6971 21.4596 22.7237 21.3637 22.777C21.269 22.8303 21.1938 22.9084 21.1382 23.0114C21.0838 23.1132 21.0565 23.2363 21.0565 23.3807ZM24.4574 26.0795C24.2408 26.0795 24.0543 26.0511 23.8981 25.9943C23.743 25.9375 23.6164 25.8623 23.5181 25.7688C23.4199 25.6753 23.3465 25.5729 23.2979 25.4616L23.7543 25.2734C23.7862 25.3255 23.8288 25.3806 23.8821 25.4386C23.9366 25.4978 24.0099 25.5481 24.1023 25.5895C24.1958 25.6309 24.3159 25.6516 24.4627 25.6516C24.6639 25.6516 24.8303 25.6025 24.9616 25.5043C25.093 25.4072 25.1587 25.2521 25.1587 25.0391V24.5028H25.125C25.093 24.5608 25.0469 24.6254 24.9865 24.6964C24.9273 24.7674 24.8456 24.829 24.7415 24.881C24.6373 24.9331 24.5018 24.9592 24.3349 24.9592C24.1194 24.9592 23.9253 24.9089 23.7525 24.8082C23.5808 24.7064 23.4447 24.5567 23.3441 24.359C23.2447 24.1602 23.195 23.9157 23.195 23.6257C23.195 23.3357 23.2441 23.0871 23.3423 22.88C23.4418 22.6728 23.5779 22.5142 23.7507 22.4041C23.9235 22.2929 24.1194 22.2372 24.3384 22.2372C24.5077 22.2372 24.6444 22.2656 24.7486 22.3224C24.8527 22.3781 24.9338 22.4432 24.9918 22.5178C25.051 22.5923 25.0966 22.658 25.1286 22.7148H25.1676V22.2727H25.6879V25.0604C25.6879 25.2947 25.6334 25.4871 25.5245 25.6374C25.4156 25.7878 25.2682 25.899 25.0824 25.9712C24.8977 26.0434 24.6894 26.0795 24.4574 26.0795ZM24.4521 24.5188C24.6048 24.5188 24.7338 24.4833 24.8391 24.4123C24.9457 24.3401 25.0262 24.2371 25.0806 24.1033C25.1362 23.9684 25.1641 23.8068 25.1641 23.6186C25.1641 23.4351 25.1368 23.2736 25.0824 23.1339C25.0279 22.9942 24.948 22.8853 24.8427 22.8072C24.7373 22.7279 24.6071 22.6882 24.4521 22.6882C24.2923 22.6882 24.1591 22.7296 24.0526 22.8125C23.946 22.8942 23.8655 23.0054 23.8111 23.1463C23.7578 23.2872 23.7312 23.4446 23.7312 23.6186C23.7312 23.7973 23.7584 23.9542 23.8129 24.0891C23.8673 24.2241 23.9478 24.3294 24.0543 24.4052C24.1621 24.4809 24.2946 24.5188 24.4521 24.5188ZM26.9935 25.0604C26.8207 25.0604 26.6645 25.0284 26.5248 24.9645C26.3851 24.8994 26.2744 24.8053 26.1928 24.6822C26.1123 24.5591 26.072 24.4081 26.072 24.2294C26.072 24.0755 26.1016 23.9489 26.1608 23.8494C26.22 23.75 26.2999 23.6713 26.4005 23.6133C26.5011 23.5553 26.6136 23.5115 26.7379 23.4819C26.8621 23.4523 26.9888 23.4298 27.1178 23.4144C27.2812 23.3955 27.4138 23.3801 27.5156 23.3683C27.6174 23.3552 27.6913 23.3345 27.7375 23.3061C27.7837 23.2777 27.8067 23.2315 27.8067 23.1676V23.1552C27.8067 23.0001 27.763 22.88 27.6754 22.7947C27.5889 22.7095 27.4599 22.6669 27.2883 22.6669C27.1095 22.6669 26.9687 22.7066 26.8657 22.7859C26.7639 22.864 26.6935 22.951 26.6544 23.0469L26.1555 22.9332C26.2147 22.7675 26.3011 22.6338 26.4147 22.532C26.5295 22.429 26.6615 22.3544 26.8107 22.3082C26.9598 22.2609 27.1166 22.2372 27.2812 22.2372C27.3901 22.2372 27.5055 22.2502 27.6274 22.2763C27.7505 22.3011 27.8653 22.3473 27.9719 22.4148C28.0796 22.4822 28.1678 22.5787 28.2364 22.7042C28.3051 22.8285 28.3394 22.9901 28.3394 23.1889V25H27.821V24.6271H27.7996C27.7653 24.6958 27.7138 24.7633 27.6452 24.8295C27.5765 24.8958 27.4883 24.9509 27.3806 24.9947C27.2729 25.0385 27.1439 25.0604 26.9935 25.0604ZM27.1089 24.6342C27.2557 24.6342 27.3812 24.6052 27.4854 24.5472C27.5907 24.4892 27.6706 24.4135 27.7251 24.32C27.7807 24.2253 27.8085 24.1241 27.8085 24.0163V23.6648C27.7896 23.6837 27.7529 23.7015 27.6984 23.718C27.6452 23.7334 27.5842 23.747 27.5156 23.7589C27.4469 23.7695 27.38 23.7796 27.3149 23.7891C27.2498 23.7973 27.1954 23.8045 27.1516 23.8104C27.0486 23.8234 26.9545 23.8453 26.8692 23.8761C26.7852 23.9068 26.7177 23.9512 26.6668 24.0092C26.6171 24.0661 26.5923 24.1418 26.5923 24.2365C26.5923 24.3679 26.6408 24.4673 26.7379 24.5348C26.8349 24.6011 26.9586 24.6342 27.1089 24.6342ZM29.99 26.0795C29.7734 26.0795 29.5869 26.0511 29.4307 25.9943C29.2756 25.9375 29.149 25.8623 29.0507 25.7688C28.9525 25.6753 28.8791 25.5729 28.8306 25.4616L29.2869 25.2734C29.3188 25.3255 29.3615 25.3806 29.4147 25.4386C29.4692 25.4978 29.5426 25.5481 29.6349 25.5895C29.7284 25.6309 29.8486 25.6516 29.9953 25.6516C30.1966 25.6516 30.3629 25.6025 30.4943 25.5043C30.6257 25.4072 30.6914 25.2521 30.6914 25.0391V24.5028H30.6576C30.6257 24.5608 30.5795 24.6254 30.5191 24.6964C30.4599 24.7674 30.3783 24.829 30.2741 24.881C30.1699 24.9331 30.0344 24.9592 29.8675 24.9592C29.6521 24.9592 29.4579 24.9089 29.2851 24.8082C29.1135 24.7064 28.9773 24.5567 28.8767 24.359C28.7773 24.1602 28.7276 23.9157 28.7276 23.6257C28.7276 23.3357 28.7767 23.0871 28.8749 22.88C28.9744 22.6728 29.1105 22.5142 29.2833 22.4041C29.4561 22.2929 29.6521 22.2372 29.871 22.2372C30.0403 22.2372 30.177 22.2656 30.2812 22.3224C30.3854 22.3781 30.4664 22.4432 30.5245 22.5178C30.5836 22.5923 30.6292 22.658 30.6612 22.7148H30.7002V22.2727H31.2205V25.0604C31.2205 25.2947 31.166 25.4871 31.0571 25.6374C30.9482 25.7878 30.8008 25.899 30.615 25.9712C30.4303 26.0434 30.222 26.0795 29.99 26.0795ZM29.9847 24.5188C30.1374 24.5188 30.2664 24.4833 30.3718 24.4123C30.4783 24.3401 30.5588 24.2371 30.6132 24.1033C30.6689 23.9684 30.6967 23.8068 30.6967 23.6186C30.6967 23.4351 30.6695 23.2736 30.615 23.1339C30.5606 22.9942 30.4807 22.8853 30.3753 22.8072C30.27 22.7279 30.1397 22.6882 29.9847 22.6882C29.8249 22.6882 29.6917 22.7296 29.5852 22.8125C29.4786 22.8942 29.3981 23.0054 29.3437 23.1463C29.2904 23.2872 29.2638 23.4446 29.2638 23.6186C29.2638 23.7973 29.291 23.9542 29.3455 24.0891C29.3999 24.2241 29.4804 24.3294 29.5869 24.4052C29.6947 24.4809 29.8272 24.5188 29.9847 24.5188ZM32.9079 25.055C32.6392 25.055 32.4078 24.9976 32.2137 24.8828C32.0207 24.7668 31.8716 24.604 31.7662 24.3945C31.662 24.1838 31.61 23.937 31.61 23.6541C31.61 23.3748 31.662 23.1286 31.7662 22.9155C31.8716 22.7024 32.0183 22.5361 32.2066 22.4165C32.3959 22.297 32.6173 22.2372 32.8706 22.2372C33.0245 22.2372 33.1736 22.2627 33.3181 22.3136C33.4625 22.3645 33.5921 22.4444 33.7069 22.5533C33.8217 22.6622 33.9123 22.8036 33.9786 22.9776C34.0449 23.1504 34.078 23.3606 34.078 23.608V23.7962H31.91V23.3984H33.5578C33.5578 23.2588 33.5293 23.1351 33.4725 23.0273C33.4157 22.9184 33.3358 22.8326 33.2328 22.7699C33.131 22.7071 33.0115 22.6758 32.8742 22.6758C32.725 22.6758 32.5948 22.7125 32.4835 22.7859C32.3735 22.8581 32.2882 22.9528 32.2279 23.07C32.1687 23.186 32.1391 23.312 32.1391 23.4482V23.7589C32.1391 23.9412 32.171 24.0962 32.235 24.2241C32.3001 24.3519 32.3906 24.4496 32.5066 24.517C32.6226 24.5833 32.7582 24.6165 32.9132 24.6165C33.0138 24.6165 33.1056 24.6023 33.1884 24.5739C33.2713 24.5443 33.3429 24.5005 33.4033 24.4425C33.4637 24.3845 33.5098 24.3129 33.5418 24.2276L34.0443 24.3182C34.004 24.4661 33.9318 24.5958 33.8276 24.707C33.7247 24.8171 33.595 24.9029 33.4388 24.9645C33.2837 25.0249 33.1068 25.055 32.9079 25.055ZM35.488 25.0533C35.2678 25.0533 35.0713 24.997 34.8985 24.8846C34.7269 24.771 34.5919 24.6094 34.4937 24.3999C34.3966 24.1892 34.3481 23.9364 34.3481 23.6417C34.3481 23.3469 34.3972 23.0948 34.4955 22.8853C34.5949 22.6758 34.731 22.5154 34.9038 22.4041C35.0767 22.2929 35.2726 22.2372 35.4915 22.2372C35.6608 22.2372 35.7969 22.2656 35.8999 22.3224C36.0041 22.3781 36.0846 22.4432 36.1414 22.5178C36.1994 22.5923 36.2444 22.658 36.2764 22.7148H36.3083V21.3636H36.8392V25H36.3207V24.5756H36.2764C36.2444 24.6336 36.1982 24.6999 36.1379 24.7745C36.0787 24.8491 35.997 24.9142 35.8928 24.9698C35.7887 25.0254 35.6537 25.0533 35.488 25.0533ZM35.6052 24.6005C35.7579 24.6005 35.8869 24.5603 35.9923 24.4798C36.0988 24.3981 36.1793 24.285 36.2337 24.1406C36.2894 23.9962 36.3172 23.8281 36.3172 23.6364C36.3172 23.447 36.29 23.2812 36.2355 23.1392C36.1811 22.9972 36.1012 22.8865 35.9958 22.8072C35.8905 22.7279 35.7603 22.6882 35.6052 22.6882C35.4454 22.6882 35.3122 22.7296 35.2057 22.8125C35.0991 22.8954 35.0187 23.0084 34.9642 23.1516C34.9109 23.2949 34.8843 23.4564 34.8843 23.6364C34.8843 23.8187 34.9115 23.9826 34.966 24.1282C35.0204 24.2738 35.1009 24.3892 35.2075 24.4744C35.3152 24.5585 35.4478 24.6005 35.6052 24.6005Z" fill="#EF4444"/>
<defs>
<linearGradient id="paint0_linear_1_5895" x1="23.5" y1="0" x2="23.5" y2="46" gradientUnits="userSpaceOnUse">
<stop stop-color="#DC2626"/>
<stop offset="0.487776" stop-color="#BB2121"/>
<stop offset="1" stop-color="#991B1B"/>
</linearGradient>
<linearGradient id="paint1_linear_1_5895" x1="23.8368" y1="39.6736" x2="23.8368" y2="7" gradientUnits="userSpaceOnUse">
<stop stop-color="#DC2626"/>
<stop offset="1" stop-color="#991B1B"/>
</linearGradient>
</defs>
</svg>
