<svg width="78" height="78" viewBox="0 0 78 78" fill="none" xmlns="http://www.w3.org/2000/svg">
<g filter="url(#filter0_d_1_5829)">
<circle cx="39" cy="39" r="23" fill="url(#paint0_linear_1_5829)"/>
</g>
<circle cx="39.3383" cy="39.3383" r="19.8376" fill="url(#paint1_linear_1_5829)"/>
<circle cx="39.3383" cy="39.3383" r="19.3376" stroke="#991B1B" stroke-opacity="0.3"/>
<path d="M29.3995 40V36.3636H31.6793V36.8359H29.9482V37.9439H31.5604V38.4144H29.9482V39.5277H31.7006V40H29.3995ZM32.7005 38.3807V40H32.1696V37.2727H32.6792V37.7166H32.7129C32.7756 37.5722 32.8739 37.4562 33.0077 37.3686C33.1426 37.281 33.3125 37.2372 33.5172 37.2372C33.7031 37.2372 33.8658 37.2763 34.0055 37.3544C34.1452 37.4313 34.2535 37.5462 34.3305 37.6989C34.4074 37.8516 34.4459 38.0404 34.4459 38.2653V40H33.915V38.3292C33.915 38.1315 33.8635 37.977 33.7605 37.8658C33.6575 37.7533 33.5161 37.6971 33.3361 37.6971C33.213 37.6971 33.1035 37.7237 33.0077 37.777C32.913 37.8303 32.8378 37.9084 32.7822 38.0114C32.7277 38.1132 32.7005 38.2363 32.7005 38.3807ZM36.1013 41.0795C35.8847 41.0795 35.6983 41.0511 35.542 40.9943C35.387 40.9375 35.2603 40.8623 35.1621 40.7688C35.0638 40.6753 34.9904 40.5729 34.9419 40.4616L35.3982 40.2734C35.4302 40.3255 35.4728 40.3806 35.526 40.4386C35.5805 40.4978 35.6539 40.5481 35.7462 40.5895C35.8397 40.6309 35.9599 40.6516 36.1067 40.6516C36.3079 40.6516 36.4742 40.6025 36.6056 40.5043C36.737 40.4072 36.8027 40.2521 36.8027 40.0391V39.5028H36.7689C36.737 39.5608 36.6908 39.6254 36.6305 39.6964C36.5713 39.7674 36.4896 39.829 36.3854 39.881C36.2813 39.9331 36.1457 39.9592 35.9788 39.9592C35.7634 39.9592 35.5693 39.9089 35.3964 39.8082C35.2248 39.7064 35.0887 39.5567 34.9881 39.359C34.8886 39.1602 34.8389 38.9157 34.8389 38.6257C34.8389 38.3357 34.888 38.0871 34.9863 37.88C35.0857 37.6728 35.2218 37.5142 35.3947 37.4041C35.5675 37.2929 35.7634 37.2372 35.9824 37.2372C36.1516 37.2372 36.2884 37.2656 36.3925 37.3224C36.4967 37.3781 36.5778 37.4432 36.6358 37.5178C36.695 37.5923 36.7405 37.658 36.7725 37.7148H36.8116V37.2727H37.3318V40.0604C37.3318 40.2947 37.2773 40.4871 37.1684 40.6374C37.0595 40.7878 36.9122 40.899 36.7263 40.9712C36.5417 41.0434 36.3333 41.0795 36.1013 41.0795ZM36.096 39.5188C36.2487 39.5188 36.3777 39.4833 36.4831 39.4123C36.5896 39.3401 36.6701 39.2371 36.7246 39.1033C36.7802 38.9684 36.808 38.8068 36.808 38.6186C36.808 38.4351 36.7808 38.2736 36.7263 38.1339C36.6719 37.9942 36.592 37.8853 36.4866 37.8072C36.3813 37.7279 36.2511 37.6882 36.096 37.6882C35.9362 37.6882 35.803 37.7296 35.6965 37.8125C35.59 37.8942 35.5095 38.0054 35.455 38.1463C35.4018 38.2872 35.3751 38.4446 35.3751 38.6186C35.3751 38.7973 35.4023 38.9542 35.4568 39.0891C35.5113 39.2241 35.5917 39.3294 35.6983 39.4052C35.806 39.4809 35.9386 39.5188 36.096 39.5188ZM38.6375 40.0604C38.4647 40.0604 38.3084 40.0284 38.1687 39.9645C38.0291 39.8994 37.9184 39.8053 37.8367 39.6822C37.7562 39.5591 37.716 39.4081 37.716 39.2294C37.716 39.0755 37.7456 38.9489 37.8047 38.8494C37.8639 38.75 37.9438 38.6713 38.0444 38.6133C38.1451 38.5553 38.2575 38.5115 38.3818 38.4819C38.5061 38.4523 38.6327 38.4298 38.7618 38.4144C38.9251 38.3955 39.0577 38.3801 39.1595 38.3683C39.2613 38.3552 39.3353 38.3345 39.3814 38.3061C39.4276 38.2777 39.4507 38.2315 39.4507 38.1676V38.1552C39.4507 38.0001 39.4069 37.88 39.3193 37.7947C39.2329 37.7095 39.1039 37.6669 38.9322 37.6669C38.7535 37.6669 38.6126 37.7066 38.5096 37.7859C38.4078 37.864 38.3374 37.951 38.2983 38.0469L37.7994 37.9332C37.8586 37.7675 37.945 37.6338 38.0586 37.532C38.1735 37.429 38.3055 37.3544 38.4546 37.3082C38.6037 37.2609 38.7606 37.2372 38.9251 37.2372C39.034 37.2372 39.1494 37.2502 39.2714 37.2763C39.3945 37.3011 39.5093 37.3473 39.6158 37.4148C39.7235 37.4822 39.8117 37.5787 39.8804 37.7042C39.949 37.8285 39.9834 37.9901 39.9834 38.1889V40H39.4649V39.6271H39.4436C39.4093 39.6958 39.3578 39.7633 39.2891 39.8295C39.2205 39.8958 39.1323 39.9509 39.0246 39.9947C38.9168 40.0385 38.7878 40.0604 38.6375 40.0604ZM38.7529 39.6342C38.8997 39.6342 39.0251 39.6052 39.1293 39.5472C39.2347 39.4892 39.3146 39.4135 39.369 39.32C39.4247 39.2253 39.4525 39.1241 39.4525 39.0163V38.6648C39.4335 38.6837 39.3968 38.7015 39.3424 38.718C39.2891 38.7334 39.2282 38.747 39.1595 38.7589C39.0908 38.7695 39.024 38.7796 38.9589 38.7891C38.8938 38.7973 38.8393 38.8045 38.7955 38.8104C38.6925 38.8234 38.5984 38.8453 38.5132 38.8761C38.4291 38.9068 38.3617 38.9512 38.3108 39.0092C38.2611 39.0661 38.2362 39.1418 38.2362 39.2365C38.2362 39.3679 38.2847 39.4673 38.3818 39.5348C38.4789 39.6011 38.6026 39.6342 38.7529 39.6342ZM41.6339 41.0795C41.4173 41.0795 41.2309 41.0511 41.0746 40.9943C40.9196 40.9375 40.7929 40.8623 40.6947 40.7688C40.5964 40.6753 40.523 40.5729 40.4745 40.4616L40.9308 40.2734C40.9628 40.3255 41.0054 40.3806 41.0587 40.4386C41.1131 40.4978 41.1865 40.5481 41.2788 40.5895C41.3723 40.6309 41.4925 40.6516 41.6393 40.6516C41.8405 40.6516 42.0068 40.6025 42.1382 40.5043C42.2696 40.4072 42.3353 40.2521 42.3353 40.0391V39.5028H42.3016C42.2696 39.5608 42.2234 39.6254 42.1631 39.6964C42.1039 39.7674 42.0222 39.829 41.918 39.881C41.8139 39.9331 41.6783 39.9592 41.5114 39.9592C41.296 39.9592 41.1019 39.9089 40.929 39.8082C40.7574 39.7064 40.6213 39.5567 40.5207 39.359C40.4212 39.1602 40.3715 38.9157 40.3715 38.6257C40.3715 38.3357 40.4206 38.0871 40.5189 37.88C40.6183 37.6728 40.7545 37.5142 40.9273 37.4041C41.1001 37.2929 41.296 37.2372 41.515 37.2372C41.6843 37.2372 41.821 37.2656 41.9251 37.3224C42.0293 37.3781 42.1104 37.4432 42.1684 37.5178C42.2276 37.5923 42.2732 37.658 42.3051 37.7148H42.3442V37.2727H42.8644V40.0604C42.8644 40.2947 42.81 40.4871 42.7011 40.6374C42.5922 40.7878 42.4448 40.899 42.2589 40.9712C42.0743 41.0434 41.866 41.0795 41.6339 41.0795ZM41.6286 39.5188C41.7813 39.5188 41.9103 39.4833 42.0157 39.4123C42.1222 39.3401 42.2027 39.2371 42.2572 39.1033C42.3128 38.9684 42.3406 38.8068 42.3406 38.6186C42.3406 38.4351 42.3134 38.2736 42.2589 38.1339C42.2045 37.9942 42.1246 37.8853 42.0192 37.8072C41.9139 37.7279 41.7837 37.6882 41.6286 37.6882C41.4688 37.6882 41.3357 37.7296 41.2291 37.8125C41.1226 37.8942 41.0421 38.0054 40.9876 38.1463C40.9344 38.2872 40.9077 38.4446 40.9077 38.6186C40.9077 38.7973 40.935 38.9542 40.9894 39.0891C41.0439 39.2241 41.1244 39.3294 41.2309 39.4052C41.3386 39.4809 41.4712 39.5188 41.6286 39.5188ZM44.5518 40.055C44.2831 40.055 44.0517 39.9976 43.8576 39.8828C43.6647 39.7668 43.5155 39.604 43.4102 39.3945C43.306 39.1838 43.2539 38.937 43.2539 38.6541C43.2539 38.3748 43.306 38.1286 43.4102 37.9155C43.5155 37.7024 43.6623 37.5361 43.8505 37.4165C44.0399 37.297 44.2612 37.2372 44.5146 37.2372C44.6684 37.2372 44.8176 37.2627 44.962 37.3136C45.1064 37.3645 45.236 37.4444 45.3509 37.5533C45.4657 37.6622 45.5562 37.8036 45.6225 37.9776C45.6888 38.1504 45.7219 38.3606 45.7219 38.608V38.7962H43.554V38.3984H45.2017C45.2017 38.2588 45.1733 38.1351 45.1165 38.0273C45.0597 37.9184 44.9798 37.8326 44.8768 37.7699C44.775 37.7071 44.6554 37.6758 44.5181 37.6758C44.369 37.6758 44.2388 37.7125 44.1275 37.7859C44.0174 37.8581 43.9322 37.9528 43.8718 38.07C43.8126 38.186 43.783 38.312 43.783 38.4482V38.7589C43.783 38.9412 43.815 39.0962 43.8789 39.2241C43.944 39.3519 44.0346 39.4496 44.1506 39.517C44.2666 39.5833 44.4021 39.6165 44.5572 39.6165C44.6578 39.6165 44.7495 39.6023 44.8324 39.5739C44.9152 39.5443 44.9869 39.5005 45.0472 39.4425C45.1076 39.3845 45.1538 39.3129 45.1857 39.2276L45.6882 39.3182C45.648 39.4661 45.5758 39.5958 45.4716 39.707C45.3686 39.8171 45.239 39.9029 45.0827 39.9645C44.9277 40.0249 44.7507 40.055 44.5518 40.055ZM47.1319 40.0533C46.9118 40.0533 46.7153 39.997 46.5425 39.8846C46.3708 39.771 46.2359 39.6094 46.1376 39.3999C46.0406 39.1892 45.992 38.9364 45.992 38.6417C45.992 38.3469 46.0412 38.0948 46.1394 37.8853C46.2388 37.6758 46.375 37.5154 46.5478 37.4041C46.7206 37.2929 46.9165 37.2372 47.1355 37.2372C47.3048 37.2372 47.4409 37.2656 47.5439 37.3224C47.648 37.3781 47.7285 37.4432 47.7854 37.5178C47.8434 37.5923 47.8883 37.658 47.9203 37.7148H47.9523V36.3636H48.4831V40H47.9647V39.5756H47.9203C47.8883 39.6336 47.8422 39.6999 47.7818 39.7745C47.7226 39.8491 47.6409 39.9142 47.5368 39.9698C47.4326 40.0254 47.2977 40.0533 47.1319 40.0533ZM47.2491 39.6005C47.4018 39.6005 47.5309 39.5603 47.6362 39.4798C47.7427 39.3981 47.8232 39.285 47.8777 39.1406C47.9333 38.9962 47.9611 38.8281 47.9611 38.6364C47.9611 38.447 47.9339 38.2812 47.8795 38.1392C47.825 37.9972 47.7451 37.8865 47.6398 37.8072C47.5344 37.7279 47.4042 37.6882 47.2491 37.6882C47.0893 37.6882 46.9562 37.7296 46.8496 37.8125C46.7431 37.8954 46.6626 38.0084 46.6081 38.1516C46.5549 38.2949 46.5282 38.4564 46.5282 38.6364C46.5282 38.8187 46.5555 38.9826 46.6099 39.1282C46.6644 39.2738 46.7449 39.3892 46.8514 39.4744C46.9591 39.5585 47.0917 39.6005 47.2491 39.6005Z" fill="#EF4444"/>
<defs>
<filter id="filter0_d_1_5829" x="0" y="0" width="78" height="78" filterUnits="userSpaceOnUse" color-interpolation-filters="sRGB">
<feFlood flood-opacity="0" result="BackgroundImageFix"/>
<feColorMatrix in="SourceAlpha" type="matrix" values="0 0 0 0 0 0 0 0 0 0 0 0 0 0 0 0 0 0 127 0" result="hardAlpha"/>
<feOffset/>
<feGaussianBlur stdDeviation="8"/>
<feComposite in2="hardAlpha" operator="out"/>
<feColorMatrix type="matrix" values="0 0 0 0 0.862745 0 0 0 0 0.14902 0 0 0 0 0.14902 0 0 0 0.5 0"/>
<feBlend mode="normal" in2="BackgroundImageFix" result="effect1_dropShadow_1_5829"/>
<feBlend mode="normal" in="SourceGraphic" in2="effect1_dropShadow_1_5829" result="shape"/>
</filter>
<linearGradient id="paint0_linear_1_5829" x1="39" y1="16" x2="39" y2="62" gradientUnits="userSpaceOnUse">
<stop stop-color="#DC2626"/>
<stop offset="0.487776" stop-color="#BB2121"/>
<stop offset="1" stop-color="#991B1B"/>
</linearGradient>
<linearGradient id="paint1_linear_1_5829" x1="39.3383" y1="59.1759" x2="39.3383" y2="19.5007" gradientUnits="userSpaceOnUse">
<stop stop-color="#DC2626"/>
<stop offset="1" stop-color="#991B1B"/>
</linearGradient>
</defs>
</svg>
