<svg width="55" height="55" viewBox="0 0 55 55" fill="none" xmlns="http://www.w3.org/2000/svg">
<g filter="url(#filter0_ddi_1_3364)">
<path d="M50 26.727C50 13.9802 39.7025 3.64685 27 3.64685C14.2975 3.64685 4 13.9802 4 26.727C4 39.4738 14.2975 49.8071 27 49.8071C39.7025 49.8071 50 39.4738 50 26.727Z" fill="url(#paint0_linear_1_3364)"/>
</g>
<path d="M25.3084 43.435C25.3084 43.9059 25.2234 44.3129 25.0533 44.656C24.8832 44.999 24.6499 45.2636 24.3534 45.4496C24.0569 45.6357 23.7182 45.7287 23.3374 45.7287C22.9565 45.7287 22.6178 45.6357 22.3213 45.4496C22.0248 45.2636 21.7915 44.999 21.6214 44.656C21.4513 44.3129 21.3663 43.9059 21.3663 43.435C21.3663 42.964 21.4513 42.557 21.6214 42.214C21.7915 41.8709 22.0248 41.6064 22.3213 41.4203C22.6178 41.2343 22.9565 41.1412 23.3374 41.1412C23.7182 41.1412 24.0569 41.2343 24.3534 41.4203C24.6499 41.6064 24.8832 41.8709 25.0533 42.214C25.2234 42.557 25.3084 42.964 25.3084 43.435ZM24.7851 43.435C24.7851 43.0483 24.7204 42.722 24.5911 42.456C24.4631 42.19 24.2894 41.9887 24.07 41.852C23.8519 41.7154 23.6077 41.6471 23.3374 41.6471C23.067 41.6471 22.8221 41.7154 22.6026 41.852C22.3845 41.9887 22.2108 42.19 22.0815 42.456C21.9535 42.722 21.8896 43.0483 21.8896 43.435C21.8896 43.8216 21.9535 44.1479 22.0815 44.414C22.2108 44.68 22.3845 44.8813 22.6026 45.0179C22.8221 45.1546 23.067 45.2229 23.3374 45.2229C23.6077 45.2229 23.8519 45.1546 24.07 45.0179C24.2894 44.8813 24.4631 44.68 24.5911 44.414C24.7204 44.1479 24.7851 43.8216 24.7851 43.435ZM26.2176 45.6677V41.2023H28.8951V41.682H26.7583V43.1908H28.6945V43.6704H26.7583V45.6677H26.2176ZM29.8212 45.6677V41.2023H32.4987V41.682H30.3619V43.1908H32.2981V43.6704H30.3619V45.6677H29.8212Z" fill="#18181B"/>
<g filter="url(#filter1_ii_1_3364)">
<rect x="25.7979" y="7.94275" width="4.09327" height="18.4839" rx="2.04664" fill="url(#paint1_linear_1_3364)"/>
</g>
<defs>
<filter id="filter0_ddi_1_3364" x="0.405287" y="0.0521374" width="54.4581" height="54.6184" filterUnits="userSpaceOnUse" color-interpolation-filters="sRGB">
<feFlood flood-opacity="0" result="BackgroundImageFix"/>
<feColorMatrix in="SourceAlpha" type="matrix" values="0 0 0 0 0 0 0 0 0 0 0 0 0 0 0 0 0 0 127 0" result="hardAlpha"/>
<feOffset dx="0.634361" dy="0.634361"/>
<feGaussianBlur stdDeviation="2.11454"/>
<feColorMatrix type="matrix" values="0 0 0 0 0.141176 0 0 0 0 0.254902 0 0 0 0 0.364706 0 0 0 0.3 0"/>
<feBlend mode="normal" in2="BackgroundImageFix" result="effect1_dropShadow_1_3364"/>
<feColorMatrix in="SourceAlpha" type="matrix" values="0 0 0 0 0 0 0 0 0 0 0 0 0 0 0 0 0 0 127 0" result="hardAlpha"/>
<feOffset dx="-0.634361" dy="-0.634361"/>
<feGaussianBlur stdDeviation="0.422907"/>
<feComposite in2="hardAlpha" operator="out"/>
<feColorMatrix type="matrix" values="0 0 0 0 1 0 0 0 0 1 0 0 0 0 1 0 0 0 0.25 0"/>
<feBlend mode="normal" in2="effect1_dropShadow_1_3364" result="effect2_dropShadow_1_3364"/>
<feBlend mode="normal" in="SourceGraphic" in2="effect2_dropShadow_1_3364" result="shape"/>
<feColorMatrix in="SourceAlpha" type="matrix" values="0 0 0 0 0 0 0 0 0 0 0 0 0 0 0 0 0 0 127 0" result="hardAlpha"/>
<feOffset dy="0.845815"/>
<feGaussianBlur stdDeviation="0.422907"/>
<feComposite in2="hardAlpha" operator="arithmetic" k2="-1" k3="1"/>
<feColorMatrix type="matrix" values="0 0 0 0 1 0 0 0 0 1 0 0 0 0 1 0 0 0 0.5 0"/>
<feBlend mode="normal" in2="shape" result="effect3_innerShadow_1_3364"/>
</filter>
<filter id="filter1_ii_1_3364" x="25.6494" y="7.6749" width="4.39021" height="19.0196" filterUnits="userSpaceOnUse" color-interpolation-filters="sRGB">
<feFlood flood-opacity="0" result="BackgroundImageFix"/>
<feBlend mode="normal" in="SourceGraphic" in2="BackgroundImageFix" result="shape"/>
<feColorMatrix in="SourceAlpha" type="matrix" values="0 0 0 0 0 0 0 0 0 0 0 0 0 0 0 0 0 0 127 0" result="hardAlpha"/>
<feOffset dx="-0.148472" dy="-0.26785"/>
<feGaussianBlur stdDeviation="0.153124"/>
<feComposite in2="hardAlpha" operator="arithmetic" k2="-1" k3="1"/>
<feColorMatrix type="matrix" values="0 0 0 0 0.631989 0 0 0 0 0.631989 0 0 0 0 0.631989 0 0 0 0.5 0"/>
<feBlend mode="normal" in2="shape" result="effect1_innerShadow_1_3364"/>
<feColorMatrix in="SourceAlpha" type="matrix" values="0 0 0 0 0 0 0 0 0 0 0 0 0 0 0 0 0 0 127 0" result="hardAlpha"/>
<feOffset dx="0.148472" dy="0.26785"/>
<feGaussianBlur stdDeviation="0.153124"/>
<feComposite in2="hardAlpha" operator="arithmetic" k2="-1" k3="1"/>
<feColorMatrix type="matrix" values="0 0 0 0 0.352405 0 0 0 0 0.352405 0 0 0 0 0.352405 0 0 0 0.5 0"/>
<feBlend mode="normal" in2="effect1_innerShadow_1_3364" result="effect2_innerShadow_1_3364"/>
</filter>
<linearGradient id="paint0_linear_1_3364" x1="-9.51699" y1="49.8071" x2="84.2643" y2="-29.559" gradientUnits="userSpaceOnUse">
<stop stop-color="white"/>
<stop offset="1" stop-color="white"/>
</linearGradient>
<linearGradient id="paint1_linear_1_3364" x1="27.139" y1="4.58572" x2="34.42" y2="7.49452" gradientUnits="userSpaceOnUse">
<stop stop-color="#605E6A"/>
<stop offset="1" stop-color="#89869D"/>
</linearGradient>
</defs>
</svg>
